# xmcd
#
# Track frame offsets: 
#        150
#        15353
#        31189
#        51157
#        77685
#        97787
#        122373
#        139817
#        160504
#        183099
#        205710
#        234705
#        252578
#        273687
#        302718
#
# Disc length: 4332 seconds
#
# Revision: 1
# Processed by: cddbd v1.5.2PL0 Copyright (c) Steve Scherf et al.
# Submitted via: ExactAudioCopyFreeDBPlugin 1.0
#
DISCID=b610ea0f
DTITLE=Elvis Costello and The Roots - Wise Up Ghost
DYEAR=2013
DGENRE=R&B
TTITLE0=Walk Us Uptown
TTITLE1=Sugar Won't Work
TTITLE2=Refuse to Be Saved
TTITLE3=Wake Me Up
TTITLE4=Tripwire
TTITLE5=Stick Out Your Tongue
TTITLE6=Come the Meantimes
TTITLE7=(She Might Be A) Grenade
TTITLE8=Cinco Minutos Con Vos
TTITLE9=Viceroy's Row
TTITLE10=Wise Up Ghost
TTITLE11=If I Could Believe
TTITLE12=My New Haunt
TTITLE13=Can You Hear Me?
TTITLE14=The Puppet Has Cut His Strings
EXTD=
EXTT0=
EXTT1=
EXTT2=
EXTT3=
EXTT4=
EXTT5=
EXTT6=
EXTT7=
EXTT8=
EXTT9=
EXTT10=
EXTT11=
EXTT12=
EXTT13=
EXTT14=
PLAYORDER=
